<svg width="53" height="97" viewBox="0 0 53 97" fill="none" xmlns="http://www.w3.org/2000/svg">
<path d="M53 55.2832C53 49.9687 46.4866 46.307 38.2233 44.5895L25.2288 28.5489C25.2288 28.2573 25.164 27.9657 25.0992 27.674L21.6642 14.874C21.6642 14.874 21.6642 14.874 21.6967 14.874L39.6491 5.63853C40.6861 5.12005 41.0749 3.82384 40.5564 2.78688C40.0379 1.74992 38.7417 1.36105 37.7048 1.87954L19.1042 11.439L17.0627 11.9899C17.0303 11.9899 16.9655 11.9899 16.9331 12.0223L15.4749 12.4112C15.4425 12.4112 15.4425 12.4112 15.4101 12.4112L6.07739 14.9064L8.31334 10.4345C8.83182 9.39752 8.41056 8.13372 7.37359 7.61524C6.33663 7.09676 5.07283 7.51803 4.55435 8.55499L0.212062 17.2072C-0.144394 17.9525 -0.047179 18.8274 0.471303 19.4755C0.892569 19.9616 1.47586 20.2532 2.09156 20.2532C2.28599 20.2532 2.44801 20.2208 2.64245 20.1884L12.8501 17.4664L16.2202 30.072C16.2526 30.2016 16.285 30.2988 16.3498 30.4284L9.25309 37.6872C8.86423 38.0761 8.6698 38.5945 8.63739 39.113L8.47537 46.5338C3.6146 48.5429 0.309277 51.4594 0.309277 55.2508C0.309277 55.4128 0.309277 55.5748 0.341682 55.7044H0.276872V84.1561C0.276872 84.1885 0.276872 84.2209 0.276872 84.2533C0.276872 91.9334 13.8546 96.1136 26.6222 96.1136C39.3898 96.1136 52.9676 91.9658 52.9676 84.2533C52.9676 84.2209 52.9676 84.1885 52.9676 84.1561V55.7368H52.9352C53 55.5748 53 55.4452 53 55.2832ZM49.1114 74.629C49.1114 78.388 39.4871 82.6007 26.6546 82.6007C24.0946 82.6007 21.6967 82.4387 19.4607 82.147V76.3789C21.8263 76.6706 24.2567 76.8002 26.6546 76.8002C35.242 76.8002 44.1858 74.9207 49.1114 71.3561V74.629ZM18.1645 66.4953V72.2635C16.4146 71.9718 14.7944 71.6478 13.3037 71.2265V65.5556C14.8268 65.9445 16.4794 66.2685 18.1645 66.4953ZM11.3594 70.6108C10.4521 70.2867 9.64195 69.9627 8.86423 69.6062V64.1622C9.64195 64.4862 10.4845 64.7455 11.3594 65.0371V70.6108ZM6.27182 68.0832C4.9108 67.0786 4.19789 66.0093 4.19789 64.9399V61.6994C4.84599 62.1531 5.5265 62.5743 6.27182 62.9956V68.0832ZM4.16549 71.3561C4.81359 71.8098 5.4941 72.231 6.23941 72.6523V77.7723C4.8784 76.7678 4.16549 75.6984 4.16549 74.629V71.3561ZM8.86423 73.8189C9.64195 74.143 10.4845 74.4022 11.3594 74.6938V80.2999C10.4521 79.9759 9.64195 79.6518 8.86423 79.2954V73.8189ZM11.3594 84.3506V89.9566C10.4521 89.6326 9.64195 89.3085 8.86423 88.9521V83.508C9.64195 83.7997 10.4845 84.0913 11.3594 84.3506ZM13.3037 84.9015C14.8592 85.2903 16.4794 85.6144 18.1645 85.8412V91.5769C16.4146 91.2853 14.7944 90.9612 13.3037 90.5399V84.9015ZM13.3037 80.8832V75.2123C14.8592 75.6012 16.4794 75.9252 18.1645 76.1521V81.8878C16.4146 81.6609 14.762 81.3045 13.3037 80.8832ZM49.1114 64.9399C49.1114 68.6989 39.4871 72.9116 26.6546 72.9116C24.0946 72.9116 21.6967 72.7495 19.4607 72.4579V66.6898C21.8263 66.9814 24.2567 67.111 26.6546 67.111C35.242 67.111 44.1858 65.2315 49.1114 61.667V64.9399ZM12.8177 40.0528L19.2339 33.5069C20.4653 32.9236 21.7939 32.632 23.1549 32.6644L32.0663 43.6821C30.284 43.5201 28.4369 43.4229 26.6546 43.4229C21.8587 43.4229 16.9655 44.0062 12.7204 45.1404L12.8177 40.0528ZM8.37815 50.8437L8.34575 52.0751C8.31334 53.2417 9.25309 54.2138 10.4197 54.2138H10.4521C11.5863 54.2138 12.526 53.3065 12.5584 52.1399L12.6232 49.1586C16.4146 48.0244 21.243 47.2791 26.6546 47.2791C29.8951 47.2791 32.9088 47.5384 35.6309 47.992L40.0379 53.4361C40.4592 53.9546 41.0749 54.2138 41.6906 54.2138C42.1443 54.2138 42.6304 54.0518 43.0192 53.7277C43.9266 52.9824 44.0562 51.6538 43.3433 50.7789L42.5331 49.7743C46.681 51.2973 49.1762 53.3389 49.1762 55.2508C49.1762 59.0098 39.5519 63.2224 26.7194 63.2224C13.887 63.2224 4.2627 59.0098 4.2627 55.2508C4.16549 53.7601 5.72093 52.2047 8.37815 50.8437ZM4.16549 84.2858C4.16549 84.2534 4.16549 84.2209 4.16549 84.1885V81.0128C4.81359 81.4665 5.4941 81.8878 6.23941 82.309V87.429C4.9108 86.3921 4.16549 85.3227 4.16549 84.2858ZM49.1114 84.2858C49.1114 88.0448 39.4871 92.2574 26.6546 92.2574C24.0946 92.2574 21.6967 92.0954 19.4607 91.8037V86.0356C21.8263 86.3273 24.2567 86.4569 26.6546 86.4569C35.242 86.4569 44.1858 84.5774 49.1114 81.0128V84.1885C49.1114 84.2209 49.1114 84.2534 49.1114 84.2858Z" fill="#F6EE24"/>
<path d="M14.9243 10.1104C17.7162 10.1104 19.9795 7.84711 19.9795 5.0552C19.9795 2.26329 17.7162 0 14.9243 0C12.1324 0 9.86914 2.26329 9.86914 5.0552C9.86914 7.84711 12.1324 10.1104 14.9243 10.1104Z" fill="#F6EE24"/>
</svg>
