<svg width="93" height="93" viewBox="0 0 93 93" fill="none" xmlns="http://www.w3.org/2000/svg">
<path d="M68.5143 49.7178C60.3536 54.2108 49.7171 58.1537 37.3385 58.1537H37.2926C24.4097 58.1537 13.223 53.844 4.87891 49.1218" stroke="#F6EE24" stroke-width="4.12621" stroke-miterlimit="10" stroke-linecap="round" stroke-linejoin="round"/>
<path d="M6.02539 24.6398C14.232 20.2385 25.006 16.3416 37.3846 16.3416H37.4305C49.6257 16.3416 60.2622 20.101 68.4229 24.4564" stroke="#F6EE24" stroke-width="4.12621" stroke-miterlimit="10" stroke-linecap="round" stroke-linejoin="round"/>
<path d="M37.2476 71.4951C56.162 71.4951 71.4951 56.162 71.4951 37.2476C71.4951 18.3332 56.162 3 37.2476 3C18.3332 3 3 18.3332 3 37.2476C3 56.162 18.3332 71.4951 37.2476 71.4951Z" stroke="#F6EE24" stroke-width="4.12621" stroke-miterlimit="10" stroke-linecap="round" stroke-linejoin="round"/>
<path d="M57.7857 37.2476C57.7857 48.6176 48.5705 57.8328 37.2005 57.8328C25.8304 57.8328 16.6152 48.6176 16.6152 37.2476C16.6152 25.8776 25.8304 16.6624 37.2005 16.6624C48.5705 16.6624 57.7857 25.8776 57.7857 37.2476ZM37.2463 25.6483C30.8277 25.6483 25.6471 30.829 25.6471 37.2476C25.6471 43.6661 30.8277 48.8468 37.2463 48.8468C43.6649 48.8468 48.8456 43.6661 48.8456 37.2476C48.8456 30.829 43.619 25.6483 37.2463 25.6483Z" fill="#F6EE24"/>
<path d="M37.2475 31.425C38.944 31.425 40.3193 30.0497 40.3193 28.3532C40.3193 26.6568 38.944 25.2815 37.2475 25.2815C35.551 25.2815 34.1758 26.6568 34.1758 28.3532C34.1758 30.0497 35.551 31.425 37.2475 31.425Z" fill="#F6EE24"/>
<path d="M68.791 68.8362C75.393 75.3006 88.0008 88.1835 88.0008 88.1835" stroke="#F6EE24" stroke-width="9.62783" stroke-miterlimit="10" stroke-linecap="round" stroke-linejoin="round"/>
</svg>
