<svg width="261" height="264" viewBox="0 0 261 264" fill="none" xmlns="http://www.w3.org/2000/svg">
<path d="M145.541 60.1698C146.477 59.1951 146.477 58.2204 147.413 57.2458C157.71 39.7019 169.879 23.1327 182.049 7.53816C183.921 5.58884 183.921 5.58884 185.793 7.53816C203.579 28.9807 219.492 51.3978 232.597 75.7643C240.086 89.4095 245.703 102.08 250.383 116.7C253.191 127.421 256 137.168 256 147.889C256 161.534 252.255 174.205 245.703 185.901C233.534 205.394 216.684 217.09 194.218 220.014C159.582 223.912 127.755 201.495 118.395 168.357" stroke="#00FFCF" stroke-width="10" stroke-miterlimit="10"/>
<path d="M185.787 259V7.53784" stroke="#00FFCF" stroke-width="10" stroke-miterlimit="10" stroke-linecap="round" stroke-linejoin="round"/>
<path d="M147.409 79.662C147.409 92.3326 144.601 105.003 139.92 117.674C133.367 136.192 124.943 153.736 114.646 170.305C104.349 187.849 92.1795 204.418 80.0104 220.013C78.1382 221.962 78.1382 221.962 76.266 220.013C58.4803 198.57 42.5668 176.153 29.4616 151.787C21.9729 138.142 16.3563 125.471 11.6759 110.851C8.8676 100.13 6.05933 90.3833 6.05933 79.662C5.12324 65.0421 8.8676 52.3716 16.3563 40.6756C28.5255 21.1825 45.3751 9.48654 67.8412 6.56257C105.285 1.68927 139.92 28.9797 146.473 68.9408C146.473 71.8647 147.409 75.7634 147.409 79.662Z" stroke="#00FFCF" stroke-width="10" stroke-miterlimit="10"/>
<path d="M57.0896 92.8549C57.0896 92.8549 57.0896 92.7046 57.0896 92.8549C55.6383 89.6993 54.7676 86.0929 54.7676 82.4866C54.7676 69.113 65.2165 58.294 78.1325 58.294V44.9204C58.1054 44.9204 41.8516 61.7501 41.8516 82.4866C41.8516 88.4972 43.3028 94.2072 45.6248 99.3162C45.6248 99.3162 48.237 107.13 59.1213 121.555C69.8605 135.831 77.6972 149.204 77.9874 149.505V123.208C73.3434 114.493 62.0238 105.778 57.0896 92.8549Z" fill="#00FFCF"/>
<path d="M78.1272 68.0613C70.4356 68.0613 64.1953 74.5227 64.1953 82.4867C64.1953 90.4507 70.4356 96.9121 78.1272 96.9121V68.0613Z" fill="#00FFCF"/>
<path d="M78.1295 107.13V123.208C78.2746 123.058 83.354 114.793 90.3199 106.078C93.5126 102.171 95.5444 99.0157 96.8505 96.912C99.3176 93.4559 100.914 89.3987 101.349 84.8908C101.494 83.9892 101.494 82.9374 101.494 82.0358C101.494 77.9786 100.479 74.222 98.592 70.9162C94.6736 63.4029 86.9821 58.2939 77.9844 58.2939V59.0453V67.3098V68.2114C85.6759 68.2114 91.9163 74.6728 91.9163 82.6368C91.9163 90.6009 85.6759 97.0622 77.9844 97.0622V106.829L78.1295 107.13Z" fill="#00FFCF"/>
</svg>
