<svg width="257" height="82" viewBox="0 0 257 82" fill="none" xmlns="http://www.w3.org/2000/svg">
<g clip-path="url(#clip0_271_3413)">
<path d="M93.8568 26.7832C94.439 26.7832 94.5555 27.0161 94.5555 27.4819V32.4891C94.5555 32.9549 94.439 33.1878 93.8568 33.1878H82.7943V54.9635C82.7943 55.5458 82.5614 55.7787 82.0956 55.7787H73.4784C72.8962 55.7787 72.7798 55.5458 72.7798 54.9635V33.1878H61.7172C61.135 33.1878 60.9021 32.9549 60.9021 32.4891V27.4819C60.9021 27.0161 61.135 26.7832 61.7172 26.7832H93.8568Z" fill="white"/>
<path d="M116.448 26.7832C125.763 26.7832 131.819 29.3451 131.819 35.1674C131.819 38.6609 128.675 41.6885 124.017 42.3872C123.667 42.3872 123.434 42.5036 123.434 42.6201C123.434 42.7365 123.551 42.853 124.017 42.853C126.695 43.0859 128.209 44.4832 128.791 46.5793C129.373 49.0247 130.072 49.4905 132.401 49.4905C132.983 49.4905 133.1 49.7234 133.1 50.1892V55.08C133.1 55.6622 132.401 56.2445 129.373 56.2445C122.503 56.2445 119.825 54.7306 118.893 49.8398C118.427 47.0451 117.263 45.6477 114.002 45.6477H108.18V54.9635C108.18 55.5458 107.947 55.7787 107.365 55.7787H98.864C98.2817 55.7787 98.1653 55.5458 98.1653 54.9635V27.5983C98.1653 27.0161 98.3982 26.7832 98.864 26.7832H116.448ZM108.063 39.7089H116.098C119.126 39.7089 120.989 38.428 120.989 36.2155C120.989 34.003 119.126 32.8385 116.098 32.8385H108.063V39.7089Z" fill="white"/>
<path d="M145.792 26.7832C146.375 26.7832 146.491 27.0161 146.491 27.5983V54.9635C146.491 55.5458 146.375 55.7787 145.792 55.7787H137.175C136.593 55.7787 136.477 55.5458 136.477 54.9635V27.5983C136.477 27.0161 136.709 26.7832 137.175 26.7832H145.792Z" fill="white"/>
<path d="M180.494 26.7832C181.076 26.7832 181.309 27.0161 181.309 27.4819V32.1398C181.309 32.6056 181.076 32.8385 180.494 32.8385H161.746V37.8457H176.651C177.35 37.8457 177.466 38.0786 177.466 38.5444V43.2023C177.466 43.6681 177.35 43.901 176.651 43.901H161.746V49.6069H180.494C181.076 49.6069 181.309 49.8398 181.309 50.3056V54.9635C181.309 55.4293 181.076 55.6622 180.494 55.6622H152.43C151.848 55.6622 151.731 55.4293 151.731 54.8471V27.5983C151.731 27.0161 151.964 26.7832 152.43 26.7832H180.494Z" fill="white"/>
<path d="M198.31 26.7832C198.892 26.7832 199.125 27.0161 199.358 27.4819L207.51 41.805C207.742 42.3872 207.975 43.0859 208.092 43.0859C208.208 43.0859 208.208 42.3872 208.208 41.805V27.5983C208.208 27.0161 208.441 26.7832 208.907 26.7832H217.175C217.757 26.7832 217.873 27.0161 217.873 27.5983V54.9635C217.873 55.5458 217.757 55.7787 217.175 55.7787H206.345C205.763 55.7787 205.53 55.6622 205.297 55.08L196.098 38.5444C195.865 38.0786 195.632 37.2635 195.515 37.2635C195.283 37.2635 195.283 37.8457 195.283 38.7773V54.9635C195.283 55.5458 195.05 55.7787 194.584 55.7787H186.316C185.734 55.7787 185.617 55.5458 185.617 54.9635V27.5983C185.617 27.0161 185.85 26.7832 186.316 26.7832H198.31Z" fill="white"/>
<path d="M240.115 26.7832C250.246 26.7832 257 33.4207 257 41.3392C257 49.2576 250.363 55.8951 240.115 55.8951H223.929C223.347 55.8951 223.23 55.6622 223.23 55.08V27.5983C223.23 27.0161 223.463 26.7832 223.929 26.7832H240.115ZM233.245 49.3741H239.766C243.725 49.3741 246.403 47.0451 246.403 41.2227C246.403 35.4003 243.725 33.1878 239.766 33.1878H233.245V49.3741Z" fill="white"/>
<path d="M12.227 37.1468C12.227 37.1468 12.227 37.0304 12.227 37.1468C11.0625 34.7014 10.3638 31.9067 10.3638 29.1119C10.3638 18.7481 18.7481 10.3638 29.1119 10.3638V0C13.0421 0 0 13.0421 0 29.1119C0 33.7698 1.16448 38.1948 3.02764 42.1541C3.02764 42.1541 5.1237 48.2093 13.8573 59.3883C22.4744 70.4508 28.7626 80.8147 28.9955 81.0476V60.6692C25.2691 53.9153 16.1862 47.1613 12.227 37.1468Z" fill="#00FFCF"/>
<path d="M29.1118 17.9331C22.9401 17.9331 17.9329 22.9404 17.9329 29.1121C17.9329 35.2838 22.9401 40.2911 29.1118 40.2911V17.9331Z" fill="#FF00E5"/>
<path d="M29.1118 48.2093V60.6692C29.2283 60.5527 33.3039 54.1481 38.8934 47.3941C41.4553 44.3665 43.0855 41.9211 44.1336 40.2908C46.1132 37.6125 47.3941 34.4684 47.7434 30.975C47.8599 30.2763 47.8599 29.4612 47.8599 28.7625C47.8599 25.6184 47.0447 22.7072 45.5309 20.1454C42.3868 14.323 36.2151 10.3638 28.9954 10.3638V10.946V17.3506V18.0493C35.1671 18.0493 40.1743 23.0566 40.1743 29.2283C40.1743 35.4 35.1671 40.4073 28.9954 40.4073V47.9764L29.1118 48.2093Z" fill="#F6EE24"/>
</g>
<defs>
<clipPath id="clip0_271_3413">
<rect width="257" height="81.0476" fill="white"/>
</clipPath>
</defs>
</svg>
