<svg width="105" height="177" viewBox="0 0 105 177" fill="none" xmlns="http://www.w3.org/2000/svg">
<path d="M26.5693 80.7202C26.5693 80.7202 26.5693 80.4672 26.5693 80.7202C24.0389 75.4063 22.5207 69.3333 22.5207 63.2603C22.5207 40.7397 40.7397 22.5207 63.2603 22.5207V0C28.3406 0 0 28.3406 0 63.2603C0 73.382 2.53041 82.9976 6.57908 91.601C6.57908 91.601 11.1338 104.759 30.1119 129.051C48.837 153.09 62.5012 175.611 63.0073 176.117V131.835C54.91 117.158 35.1728 102.482 26.5693 80.7202Z" fill="#00FFCF"/>
<path d="M63 39C49.75 39 39 49.974 39 63.5C39 77.026 49.75 88 63 88V39Z" fill="#FF00E5"/>
<path d="M63.25 104.925V132C63.503 131.747 72.6199 117.664 84.7659 102.988C90.3328 96.4086 93.8753 91.0947 96.1527 87.5521C100.454 81.7322 103.238 74.9001 103.997 67.3088C104.25 65.7906 104.25 64.0193 104.25 62.501C104.25 55.6689 102.479 49.3429 99.1892 43.776C92.3571 31.1239 78.9459 22.5205 63.2573 22.5205V23.7857V37.703V39.2212C76.6685 39.2212 87.5493 50.102 87.5493 63.5132C87.5493 76.9244 76.6685 87.8052 63.2573 87.8052V104.253L63.25 104.925Z" fill="#F6EE24"/>
</svg>
